<svg width="12" height="12" viewBox="0 0 12 12" fill="none" xmlns="http://www.w3.org/2000/svg">
<path d="M1 6C1 4.1145 1 3.1715 1.586 2.586C2.1715 2 3.1145 2 5 2H7C8.8855 2 9.8285 2 10.414 2.586C11 3.1715 11 4.1145 11 6V7C11 8.8855 11 9.8285 10.414 10.414C9.8285 11 8.8855 11 7 11H5C3.1145 11 2.1715 11 1.586 10.414C1 9.8285 1 8.8855 1 7V6Z" stroke="#ABABAB" stroke-width="1.5"/>
<path d="M9 8H8M8 8H7M8 8V7M8 8V9M3.5 2V1.25M8.5 2V1.25M1.25 4.5H10.75" stroke="#ABABAB" stroke-width="1.5" stroke-linecap="round"/>
</svg>
