<svg width="324" height="227" viewBox="0 0 324 227" fill="none" xmlns="http://www.w3.org/2000/svg">
<path d="M176.24 61.4844H175.499" stroke="#ABABAB" stroke-width="2.5" stroke-linecap="round" stroke-linejoin="round"/>
<path d="M228.75 140.917V37.0837C228.75 35.1166 227.969 33.2302 226.578 31.8393C225.187 30.4484 223.3 29.667 221.333 29.667H102.667C100.7 29.667 98.8132 30.4484 97.4223 31.8393C96.0314 33.2302 95.25 35.1166 95.25 37.0837V140.917M228.75 140.917C228.75 142.884 227.969 144.77 226.578 146.161C225.187 147.552 223.3 148.334 221.333 148.334M228.75 140.917V123.933L193.818 89.0003L134.484 148.334M221.333 148.334H102.667M221.333 148.334H134.484M102.667 148.334C100.7 148.334 98.8132 147.552 97.4223 146.161C96.0314 144.77 95.25 142.884 95.25 140.917M102.667 148.334H134.484M95.25 140.917V116.664L137.599 74.167L173.051 109.767L134.484 148.334" stroke="#ABABAB" stroke-width="2" stroke-linecap="round" stroke-linejoin="round"/>
<path d="M4.72 218.24C3.65333 218.24 3.12 217.573 3.12 216.24V194.32C3.12 192.987 3.65333 192.32 4.72 192.32H12.24C15.7467 192.32 18.26 192.833 19.78 193.86C21.3133 194.873 22.08 196.56 22.08 198.92C22.08 199.933 21.9533 200.793 21.7 201.5C21.46 202.207 21.1067 202.807 20.64 203.3C21.68 203.873 22.46 204.713 22.98 205.82C23.5 206.927 23.76 208.28 23.76 209.88V210.64C23.76 212.533 23.4333 214.033 22.78 215.14C22.1267 216.247 21.0467 217.04 19.54 217.52C18.0333 218 16 218.24 13.44 218.24H4.72ZM6.48 214.88H13.44C14.9067 214.88 16.1467 214.82 17.16 214.7C18.1733 214.58 18.92 214.333 19.4 213.96C19.8 213.64 20.0667 213.213 20.2 212.68C20.3333 212.133 20.4 211.453 20.4 210.64V210C20.4 209.133 20.3267 208.427 20.18 207.88C20.0333 207.32 19.7467 206.893 19.32 206.6C18.88 206.253 18.2467 206.027 17.42 205.92C16.6067 205.813 15.52 205.76 14.16 205.76H6.48V214.88ZM6.48 202.4H12.24C13.9733 202.4 15.3067 202.313 16.24 202.14C17.1733 201.953 17.82 201.627 18.18 201.16C18.54 200.68 18.72 200 18.72 199.12C18.72 198.253 18.54 197.587 18.18 197.12C17.8333 196.653 17.1933 196.333 16.26 196.16C15.3267 195.973 13.9867 195.88 12.24 195.88H6.48V202.4ZM28.5422 218.24V201C28.5422 199.693 29.1022 199.04 30.2222 199.04C31.3422 199.04 31.9022 199.693 31.9022 201V206.8H40.5022C42.0355 206.8 43.3289 207.027 44.3822 207.48C45.4489 207.92 46.2622 208.567 46.8222 209.42C47.3822 210.26 47.6622 211.293 47.6622 212.52C47.6622 213.733 47.3822 214.767 46.8222 215.62C46.2755 216.46 45.4689 217.1 44.4022 217.54C43.3355 217.98 42.0355 218.213 40.5022 218.24H28.5422ZM31.9022 214.88H40.1422C41.2222 214.88 42.1822 214.747 43.0222 214.48C43.8755 214.2 44.3022 213.613 44.3022 212.72C44.3022 211.987 44.1422 211.44 43.8222 211.08C43.5155 210.707 43.0489 210.46 42.4222 210.34C41.8089 210.22 41.0489 210.16 40.1422 210.16H31.9022V214.88ZM50.3822 219.12C49.2889 219.12 48.7422 218.48 48.7422 217.2V200.4C48.7422 199.8 48.8889 199.327 49.1822 198.98C49.4889 198.62 49.9022 198.44 50.4222 198.44C50.9422 198.44 51.3489 198.62 51.6422 198.98C51.9489 199.327 52.1022 199.8 52.1022 200.4V217.2C52.1022 218.48 51.5289 219.12 50.3822 219.12ZM67.7647 218.24C65.218 218.24 63.1847 218.007 61.6647 217.54C60.158 217.06 59.078 216.273 58.4247 215.18C57.7714 214.087 57.4447 212.613 57.4447 210.76V199.96C57.4447 198.44 57.7114 197.187 58.2447 196.2C58.778 195.2 59.598 194.427 60.7047 193.88C61.8247 193.32 63.258 192.933 65.0047 192.72C66.1514 192.573 67.538 192.473 69.1647 192.42C70.8047 192.353 72.5247 192.32 74.3247 192.32C75.7114 192.32 76.4047 192.893 76.4047 194.04C76.4047 194.6 76.2114 195.013 75.8247 195.28C75.438 195.547 74.8847 195.68 74.1647 195.68C73.498 195.68 72.8914 195.68 72.3447 195.68C71.8114 195.68 71.3114 195.687 70.8447 195.7C70.378 195.7 69.9114 195.707 69.4447 195.72C68.9914 195.72 68.5114 195.733 68.0047 195.76C66.5647 195.827 65.3047 195.967 64.2247 196.18C63.158 196.38 62.3247 196.727 61.7247 197.22C61.138 197.7 60.8447 198.4 60.8447 199.32H69.6847C72.0314 199.32 73.9047 199.56 75.3047 200.04C76.718 200.507 77.7314 201.28 78.3447 202.36C78.9714 203.44 79.2847 204.88 79.2847 206.68V210.88C79.2847 212.707 78.958 214.16 78.3047 215.24C77.6514 216.307 76.5714 217.073 75.0647 217.54C73.558 218.007 71.5247 218.24 68.9647 218.24H67.7647ZM67.7647 214.88H68.9647C70.9647 214.88 72.458 214.787 73.4447 214.6C74.4447 214.4 75.1047 214.007 75.4247 213.42C75.758 212.82 75.9247 211.933 75.9247 210.76V206.8C75.9247 205.627 75.7714 204.747 75.4647 204.16C75.158 203.573 74.558 203.18 73.6647 202.98C72.7714 202.78 71.4447 202.68 69.6847 202.68H60.8047V210.76C60.8047 211.933 60.9647 212.82 61.2847 213.42C61.618 214.007 62.278 214.4 63.2647 214.6C64.2647 214.787 65.7647 214.88 67.7647 214.88ZM94.0444 218.24C91.4844 218.24 89.4444 218.013 87.9244 217.56C86.4177 217.093 85.331 216.327 84.6644 215.26C84.011 214.18 83.6844 212.72 83.6844 210.88V206.68C83.6844 204.84 84.011 203.387 84.6644 202.32C85.331 201.24 86.4177 200.473 87.9244 200.02C89.4444 199.553 91.4844 199.32 94.0444 199.32H95.2044C97.7644 199.32 99.7977 199.553 101.304 200.02C102.811 200.487 103.891 201.26 104.544 202.34C105.198 203.407 105.524 204.853 105.524 206.68V208.84H87.0444V210.76C87.0444 211.933 87.2044 212.82 87.5244 213.42C87.8577 214.007 88.5244 214.4 89.5244 214.6C90.5244 214.787 92.031 214.88 94.0444 214.88H100.204C100.831 214.88 101.244 214.767 101.444 214.54C101.658 214.313 101.764 213.867 101.764 213.2C101.764 212.533 101.911 212.013 102.204 211.64C102.511 211.267 102.931 211.08 103.464 211.08C104.011 211.093 104.424 211.3 104.704 211.7C104.984 212.087 105.124 212.64 105.124 213.36C105.124 214.467 104.958 215.387 104.624 216.12C104.291 216.84 103.778 217.373 103.084 217.72C102.404 218.067 101.538 218.24 100.484 218.24H94.0444ZM87.0644 205.48H102.144C101.998 204.307 101.524 203.56 100.724 203.24C100.244 203.053 99.531 202.913 98.5844 202.82C97.651 202.727 96.5244 202.68 95.2044 202.68H94.0444C92.6044 202.68 91.411 202.733 90.4644 202.84C89.531 202.933 88.8444 203.08 88.4044 203.28C87.6044 203.613 87.1577 204.347 87.0644 205.48ZM111.939 225.52C110.846 225.52 110.299 224.84 110.299 223.48V200.96C110.299 199.68 110.872 199.04 112.019 199.04C112.619 199.04 113.032 199.227 113.259 199.6C113.499 199.973 113.619 200.613 113.619 201.52V202.72L113.019 201.92C113.859 201 114.919 200.34 116.199 199.94C117.492 199.527 118.979 199.32 120.659 199.32H121.819C124.379 199.32 126.412 199.553 127.919 200.02C129.426 200.487 130.506 201.26 131.159 202.34C131.812 203.407 132.139 204.853 132.139 206.68V210.88C132.139 212.707 131.812 214.16 131.159 215.24C130.506 216.307 129.432 217.073 127.939 217.54C126.459 218.007 124.459 218.24 121.939 218.24H113.659V223.48C113.659 224.84 113.086 225.52 111.939 225.52ZM113.659 214.88H121.939C123.912 214.88 125.386 214.787 126.359 214.6C127.332 214.4 127.979 214.007 128.299 213.42C128.619 212.82 128.779 211.933 128.779 210.76V206.8C128.779 205.613 128.612 204.727 128.279 204.14C127.959 203.553 127.299 203.167 126.299 202.98C125.312 202.78 123.819 202.68 121.819 202.68H120.659C118.246 202.68 116.472 203.173 115.339 204.16C114.219 205.133 113.659 206.653 113.659 208.72V214.88ZM155.696 218.52C154.576 218.52 154.016 217.827 154.016 216.44V204.08L140.276 218.24H137.136V201C137.136 199.693 137.696 199.04 138.816 199.04C139.936 199.04 140.496 199.733 140.496 201.12V213.64L154.356 199.32H157.376V216.56C157.376 217.867 156.816 218.52 155.696 218.52ZM170.236 218.52C169.01 218.52 168.396 217.92 168.396 216.72V202.68H162.636C161.33 202.68 160.676 202.12 160.676 201C160.676 199.88 161.33 199.32 162.636 199.32H177.876C179.183 199.32 179.836 199.88 179.836 201C179.836 202.12 179.183 202.68 177.876 202.68H172.156V216.72C172.156 217.267 171.983 217.7 171.636 218.02C171.29 218.353 170.823 218.52 170.236 218.52ZM192.873 218.24C190.313 218.24 188.273 218.013 186.753 217.56C185.246 217.093 184.159 216.327 183.493 215.26C182.839 214.18 182.513 212.72 182.513 210.88V206.68C182.513 204.84 182.839 203.387 183.493 202.32C184.159 201.24 185.246 200.473 186.753 200.02C188.273 199.553 190.313 199.32 192.873 199.32H194.033C196.593 199.32 198.626 199.553 200.133 200.02C201.639 200.487 202.719 201.26 203.372 202.34C204.026 203.407 204.353 204.853 204.353 206.68V208.84H185.873V210.76C185.873 211.933 186.033 212.82 186.353 213.42C186.686 214.007 187.353 214.4 188.353 214.6C189.353 214.787 190.859 214.88 192.873 214.88H199.033C199.659 214.88 200.073 214.767 200.273 214.54C200.486 214.313 200.593 213.867 200.593 213.2C200.593 212.533 200.739 212.013 201.033 211.64C201.339 211.267 201.759 211.08 202.293 211.08C202.839 211.093 203.253 211.3 203.533 211.7C203.813 212.087 203.953 212.64 203.953 213.36C203.953 214.467 203.786 215.387 203.453 216.12C203.119 216.84 202.606 217.373 201.913 217.72C201.233 218.067 200.366 218.24 199.313 218.24H192.873ZM185.893 205.48H200.972C200.826 204.307 200.353 203.56 199.553 203.24C199.073 203.053 198.359 202.913 197.413 202.82C196.479 202.727 195.353 202.68 194.033 202.68H192.873C191.433 202.68 190.239 202.733 189.293 202.84C188.359 202.933 187.673 203.08 187.233 203.28C186.433 203.613 185.986 204.347 185.893 205.48ZM235.065 225.52C233.945 225.52 233.385 224.84 233.385 223.48V216.66C232.745 217.193 232.012 217.593 231.185 217.86C230.359 218.113 229.452 218.24 228.465 218.24C223.532 218.24 221.065 215.52 221.065 210.08V207.48C221.065 202.04 223.532 199.32 228.465 199.32C229.452 199.32 230.359 199.453 231.185 199.72C232.012 199.973 232.745 200.367 233.385 200.9V194.08C233.385 192.72 233.945 192.04 235.065 192.04C236.185 192.04 236.745 192.72 236.745 194.08V200.9C237.385 200.367 238.119 199.973 238.945 199.72C239.785 199.453 240.692 199.32 241.665 199.32C246.599 199.32 249.065 202.04 249.065 207.48V210.08C249.065 212.773 248.445 214.807 247.205 216.18C245.979 217.553 244.132 218.24 241.665 218.24C240.692 218.24 239.785 218.113 238.945 217.86C238.119 217.593 237.385 217.193 236.745 216.66V223.48C236.745 224.84 236.185 225.52 235.065 225.52ZM228.505 214.88C229.665 214.88 230.605 214.607 231.325 214.06C232.045 213.513 232.565 212.78 232.885 211.86C233.219 210.927 233.385 209.893 233.385 208.76C233.385 207.56 233.219 206.507 232.885 205.6C232.552 204.68 232.019 203.967 231.285 203.46C230.565 202.94 229.625 202.68 228.465 202.68C227.572 202.68 226.852 202.8 226.305 203.04C225.772 203.267 225.365 203.593 225.085 204.02C224.819 204.447 224.639 204.953 224.545 205.54C224.465 206.127 224.425 206.773 224.425 207.48V210.08C224.425 211.84 224.725 213.08 225.325 213.8C225.925 214.52 226.985 214.88 228.505 214.88ZM241.785 214.88C242.839 214.88 243.645 214.693 244.205 214.32C244.779 213.933 245.172 213.387 245.385 212.68C245.599 211.96 245.705 211.093 245.705 210.08V207.48C245.705 205.72 245.405 204.48 244.805 203.76C244.205 203.04 243.145 202.68 241.625 202.68C240.479 202.68 239.545 202.953 238.825 203.5C238.105 204.047 237.579 204.78 237.245 205.7C236.912 206.62 236.745 207.64 236.745 208.76C236.745 210.013 236.925 211.1 237.285 212.02C237.659 212.927 238.219 213.633 238.965 214.14C239.712 214.633 240.652 214.88 241.785 214.88ZM263.732 218.24C261.172 218.24 259.132 218.013 257.612 217.56C256.105 217.093 255.019 216.327 254.352 215.26C253.699 214.18 253.372 212.72 253.372 210.88V206.68C253.372 204.84 253.699 203.387 254.352 202.32C255.019 201.24 256.105 200.473 257.612 200.02C259.132 199.553 261.172 199.32 263.732 199.32H264.892C267.452 199.32 269.485 199.553 270.992 200.02C272.499 200.487 273.579 201.26 274.232 202.34C274.885 203.407 275.212 204.853 275.212 206.68V210.88C275.212 212.707 274.885 214.16 274.232 215.24C273.579 216.307 272.499 217.073 270.992 217.54C269.485 218.007 267.452 218.24 264.892 218.24H263.732ZM263.732 214.88H264.892C266.892 214.88 268.385 214.787 269.372 214.6C270.372 214.4 271.032 214.007 271.352 213.42C271.685 212.82 271.852 211.933 271.852 210.76V206.8C271.852 205.613 271.685 204.727 271.352 204.14C271.032 203.553 270.372 203.167 269.372 202.98C268.385 202.78 266.892 202.68 264.892 202.68H263.732C261.719 202.68 260.212 202.78 259.212 202.98C258.212 203.167 257.545 203.553 257.212 204.14C256.892 204.727 256.732 205.613 256.732 206.8V210.76C256.732 211.933 256.892 212.82 257.212 213.42C257.545 214.007 258.212 214.4 259.212 214.6C260.212 214.787 261.719 214.88 263.732 214.88ZM287.502 218.52C286.275 218.52 285.662 217.92 285.662 216.72V202.68H279.902C278.595 202.68 277.942 202.12 277.942 201C277.942 199.88 278.595 199.32 279.902 199.32H295.142C296.449 199.32 297.102 199.88 297.102 201C297.102 202.12 296.449 202.68 295.142 202.68H289.422V216.72C289.422 217.267 289.249 217.7 288.902 218.02C288.555 218.353 288.089 218.52 287.502 218.52ZM310.138 218.24C307.578 218.24 305.538 218.013 304.018 217.56C302.511 217.093 301.425 216.327 300.758 215.26C300.105 214.18 299.778 212.72 299.778 210.88V206.68C299.778 204.84 300.105 203.387 300.758 202.32C301.425 201.24 302.511 200.473 304.018 200.02C305.538 199.553 307.578 199.32 310.138 199.32H311.298C313.858 199.32 315.891 199.553 317.398 200.02C318.905 200.487 319.985 201.26 320.638 202.34C321.291 203.407 321.618 204.853 321.618 206.68V210.88C321.618 212.707 321.291 214.16 320.638 215.24C319.985 216.307 318.905 217.073 317.398 217.54C315.891 218.007 313.858 218.24 311.298 218.24H310.138ZM310.138 214.88H311.298C313.298 214.88 314.791 214.787 315.778 214.6C316.778 214.4 317.438 214.007 317.758 213.42C318.091 212.82 318.258 211.933 318.258 210.76V206.8C318.258 205.613 318.091 204.727 317.758 204.14C317.438 203.553 316.778 203.167 315.778 202.98C314.791 202.78 313.298 202.68 311.298 202.68H310.138C308.125 202.68 306.618 202.78 305.618 202.98C304.618 203.167 303.951 203.553 303.618 204.14C303.298 204.727 303.138 205.613 303.138 206.8V210.76C303.138 211.933 303.298 212.82 303.618 213.42C303.951 214.007 304.618 214.4 305.618 214.6C306.618 214.787 308.125 214.88 310.138 214.88Z" fill="#ABABAB"/>
</svg>
