<svg width="14" height="14" viewBox="0 0 14 14" fill="none" xmlns="http://www.w3.org/2000/svg">
<path d="M13 13L10.1067 10.1067M11.6667 6.33333C11.6667 7.38817 11.3539 8.41931 10.7678 9.29637C10.1818 10.1734 9.34885 10.857 8.37431 11.2607C7.39977 11.6644 6.32742 11.77 5.29285 11.5642C4.25829 11.3584 3.30798 10.8505 2.5621 10.1046C1.81622 9.35869 1.30827 8.40838 1.10248 7.37382C0.896693 6.33925 1.00231 5.26689 1.40598 4.29235C1.80965 3.31782 2.49323 2.48486 3.37029 1.89883C4.24736 1.31279 5.2785 1 6.33334 1C7.74782 1 9.10438 1.5619 10.1046 2.5621C11.1048 3.56229 11.6667 4.91885 11.6667 6.33333Z" stroke="#5F5F5F" stroke-linecap="round" stroke-linejoin="round"/>
</svg>
