<svg width="596" height="70" viewBox="0 0 596 70" fill="none" xmlns="http://www.w3.org/2000/svg">
<path fill-rule="evenodd" clip-rule="evenodd" d="M52.5373 9.03195C52.5373 4.04374 56.581 0 61.5692 0H61.7796C66.7678 0 70.8116 4.04374 70.8116 9.03195C70.8116 14.0202 66.7678 18.0639 61.7796 18.0639H61.5692C56.581 18.0639 52.5373 14.0202 52.5373 9.03195ZM45.6857 24.8362V69.996H45.1598C20.2187 69.996 0 49.7773 0 24.8362H45.6857ZM47.9673 70V69.996V47.4201V24.8362H70.8102V47.4201V69.996V70H47.9673ZM45.6857 0.000586241H22.8429H0V22.5805H22.8429H45.6857V0.000586241ZM81.4123 67.6667H128.412C138.94 67.3847 147.212 59.0187 147.212 48.8667C147.212 43.2267 145.05 38.5267 140.82 34.7667C145.05 31.0067 147.212 26.3067 147.212 20.6667C147.212 10.2327 138.282 1.86666 128.412 1.86666H81.4123V67.6667ZM90.8123 39.4667H128.412C133.582 39.4667 137.812 43.6967 137.812 48.8667C137.812 54.0367 133.582 58.2667 128.412 58.2667H90.8123V39.4667ZM90.8123 30.0667V11.2667H128.412C133.582 11.2667 137.812 15.4967 137.812 20.6667C137.812 25.8367 133.582 30.0667 128.412 30.0667H90.8123ZM165.076 1.86666H155.676V67.6667H165.076L212.076 14.5567V67.6667H221.476V1.86666H212.076L165.076 54.0367V1.86666ZM263.758 11.2667H291.958V1.86666H226.158V11.2667H254.358V67.6667H263.758V11.2667ZM353.076 20.6667V30.0667C353.076 35.2367 348.846 39.4667 343.676 39.4667H306.076V11.2667H343.676C348.846 11.2667 353.076 15.4967 353.076 20.6667ZM362.476 30.0667V20.6667C362.194 10.2327 353.734 1.86666 343.676 1.86666H296.676V67.6667H306.076V48.8667H343.676C354.204 48.8667 362.476 40.0307 362.476 30.0667ZM379.422 1.86666H370.022V67.6667H379.422L426.422 14.5567V67.6667H435.822V1.86666H426.422L379.422 54.0367V1.86666ZM454.603 18.6927L482.803 59.3947L511.003 18.6927V67.6667H520.403V1.86666H511.003L482.803 42.5687L454.603 1.86666H445.203V67.6667H454.603V18.6927ZM548.64 11.2667H576.84C582.01 11.2667 586.24 15.4967 586.24 20.6667V39.4667H539.24V20.6667C539.24 15.4967 543.47 11.2667 548.64 11.2667ZM595.64 67.6667V20.6667C595.358 10.2327 586.898 1.86666 576.84 1.86666H548.64C538.112 1.86666 529.84 10.7027 529.84 20.6667V67.6667H539.24V48.8667H586.24V67.6667H595.64Z" fill="black"/>
</svg>
