<svg width="16" height="16" viewBox="0 0 16 16" fill="none" xmlns="http://www.w3.org/2000/svg">
<path d="M14 8V13.3333C14 13.5101 13.9298 13.6797 13.8047 13.8047C13.6797 13.9298 13.5101 14 13.3333 14H2.66667C2.48986 14 2.32029 13.9298 2.19526 13.8047C2.07024 13.6797 2 13.5101 2 13.3333V2.66667C2 2.48986 2.07024 2.32029 2.19526 2.19526C2.32029 2.07024 2.48986 2 2.66667 2H8" stroke="white" stroke-linecap="round" stroke-linejoin="round"/>
<path d="M10.667 2H13.627C13.726 2 13.821 2.03933 13.891 2.10935C13.961 2.17936 14.0003 2.27432 14.0003 2.37333V5.33333" stroke="white" stroke-linecap="round" stroke-linejoin="round"/>
<path d="M13.8933 2.10645L8 7.99978" stroke="white" stroke-linecap="round" stroke-linejoin="round"/>
</svg>
